<mxfile host="app.diagrams.net" agent="Mozilla/5.0 (Windows NT 10.0; Win64; x64; rv:143.0) Gecko/20100101 Firefox/143.0" version="28.2.5">
  <diagram name="Page-1" id="hKgmJlj2i8ptv6tC-m2v">
    <mxGraphModel dx="1188" dy="743" grid="1" gridSize="10" guides="1" tooltips="1" connect="1" arrows="1" fold="1" page="1" pageScale="1" pageWidth="827" pageHeight="1169" background="light-dark(#FFFFFF,#FFFFFF)" math="0" shadow="0" adaptiveColors="simple">
      <root>
        <mxCell id="0" />
        <mxCell id="1" parent="0" />
        <mxCell id="y_GRqJ1ZzVfy5zHWJSPP-23" value="Oksygenforhold" style="whiteSpace=wrap;html=1;labelBackgroundColor=none;fillColor=#cce5ff;strokeColor=#36393d;fontColor=#000000;" parent="1" vertex="1">
          <mxGeometry x="445" y="99" width="90" height="40" as="geometry" />
        </mxCell>
        <mxCell id="y_GRqJ1ZzVfy5zHWJSPP-24" value="" style="edgeStyle=elbowEdgeStyle;elbow=horizontal;html=1;rounded=1;curved=0;sourcePerimeterSpacing=0;targetPerimeterSpacing=0;startSize=6;endSize=6;entryX=0;entryY=0.25;entryDx=0;entryDy=0;labelBackgroundColor=none;fontColor=#000000;fillColor=#cce5ff;strokeColor=#36393d;" parent="1" source="y_GRqJ1ZzVfy5zHWJSPP-23" target="y_GRqJ1ZzVfy5zHWJSPP-25" edge="1">
          <mxGeometry relative="1" as="geometry" />
        </mxCell>
        <mxCell id="y_GRqJ1ZzVfy5zHWJSPP-25" value="Fysisk-kjemiske elementer" style="whiteSpace=wrap;html=1;labelBackgroundColor=none;fillColor=#cce5ff;strokeColor=#36393d;fontColor=#000000;" parent="1" vertex="1">
          <mxGeometry x="615" y="159" width="80" height="60" as="geometry" />
        </mxCell>
        <mxCell id="y_GRqJ1ZzVfy5zHWJSPP-26" value="Siktedyp" style="whiteSpace=wrap;html=1;labelBackgroundColor=none;fillColor=#cce5ff;strokeColor=#36393d;fontColor=#000000;" parent="1" vertex="1">
          <mxGeometry x="445" y="169" width="90" height="40" as="geometry" />
        </mxCell>
        <mxCell id="y_GRqJ1ZzVfy5zHWJSPP-27" value="" style="edgeStyle=elbowEdgeStyle;elbow=horizontal;html=1;rounded=1;curved=0;sourcePerimeterSpacing=0;targetPerimeterSpacing=0;startSize=6;endSize=6;entryX=0;entryY=0.5;entryDx=0;entryDy=0;labelBackgroundColor=none;fontColor=#000000;fillColor=#cce5ff;strokeColor=#36393d;" parent="1" source="y_GRqJ1ZzVfy5zHWJSPP-26" target="y_GRqJ1ZzVfy5zHWJSPP-25" edge="1">
          <mxGeometry relative="1" as="geometry">
            <mxPoint x="645" y="259" as="targetPoint" />
          </mxGeometry>
        </mxCell>
        <mxCell id="y_GRqJ1ZzVfy5zHWJSPP-29" value="" style="edgeStyle=elbowEdgeStyle;elbow=horizontal;html=1;rounded=1;curved=0;sourcePerimeterSpacing=0;targetPerimeterSpacing=0;startSize=6;endSize=6;entryX=0;entryY=0.75;entryDx=0;entryDy=0;labelBackgroundColor=none;fontColor=#000000;fillColor=#cce5ff;strokeColor=#36393d;" parent="1" target="y_GRqJ1ZzVfy5zHWJSPP-25" edge="1">
          <mxGeometry relative="1" as="geometry">
            <mxPoint x="645" y="259" as="targetPoint" />
            <mxPoint x="535" y="409" as="sourcePoint" />
          </mxGeometry>
        </mxCell>
        <mxCell id="y_GRqJ1ZzVfy5zHWJSPP-30" value="Sommer" style="whiteSpace=wrap;html=1;labelBackgroundColor=none;fillColor=#cce5ff;strokeColor=#36393d;fontColor=#000000;" parent="1" vertex="1">
          <mxGeometry x="280" y="300" width="110" height="59" as="geometry" />
        </mxCell>
        <mxCell id="y_GRqJ1ZzVfy5zHWJSPP-31" value="" style="edgeStyle=elbowEdgeStyle;elbow=horizontal;html=1;rounded=1;curved=0;sourcePerimeterSpacing=0;targetPerimeterSpacing=0;startSize=6;endSize=6;labelBackgroundColor=none;fontColor=#000000;fillColor=#cce5ff;strokeColor=#36393d;" parent="1" source="y_GRqJ1ZzVfy5zHWJSPP-30" edge="1">
          <mxGeometry relative="1" as="geometry">
            <mxPoint x="450" y="330" as="targetPoint" />
          </mxGeometry>
        </mxCell>
        <mxCell id="y_GRqJ1ZzVfy5zHWJSPP-32" value="NH4-N sommer" style="whiteSpace=wrap;html=1;labelBackgroundColor=none;fillColor=#cce5ff;strokeColor=#36393d;fontColor=#000000;" parent="1" vertex="1">
          <mxGeometry x="34" y="239" width="170" height="40" as="geometry" />
        </mxCell>
        <mxCell id="y_GRqJ1ZzVfy5zHWJSPP-33" value="" style="edgeStyle=elbowEdgeStyle;elbow=horizontal;html=1;rounded=1;curved=0;sourcePerimeterSpacing=0;targetPerimeterSpacing=0;startSize=6;endSize=6;labelBackgroundColor=none;fontColor=#000000;fillColor=#cce5ff;strokeColor=#36393d;entryX=0;entryY=0.25;entryDx=0;entryDy=0;" parent="1" source="y_GRqJ1ZzVfy5zHWJSPP-32" target="y_GRqJ1ZzVfy5zHWJSPP-30" edge="1">
          <mxGeometry relative="1" as="geometry">
            <mxPoint x="250" y="280" as="targetPoint" />
          </mxGeometry>
        </mxCell>
        <mxCell id="y_GRqJ1ZzVfy5zHWJSPP-34" value="Eutrofiering" style="whiteSpace=wrap;html=1;labelBackgroundColor=none;fillColor=#cce5ff;strokeColor=#36393d;fontColor=#000000;" parent="1" vertex="1">
          <mxGeometry x="285" y="169" width="80" height="40" as="geometry" />
        </mxCell>
        <mxCell id="y_GRqJ1ZzVfy5zHWJSPP-35" value="" style="edgeStyle=elbowEdgeStyle;elbow=horizontal;html=1;rounded=1;curved=0;sourcePerimeterSpacing=0;targetPerimeterSpacing=0;startSize=6;endSize=6;entryX=0;entryY=0.5;entryDx=0;entryDy=0;labelBackgroundColor=none;fontColor=#000000;fillColor=#cce5ff;strokeColor=#36393d;" parent="1" source="y_GRqJ1ZzVfy5zHWJSPP-34" target="y_GRqJ1ZzVfy5zHWJSPP-26" edge="1">
          <mxGeometry relative="1" as="geometry">
            <mxPoint x="405" y="139" as="targetPoint" />
          </mxGeometry>
        </mxCell>
        <mxCell id="y_GRqJ1ZzVfy5zHWJSPP-36" value="Siktdyp" style="whiteSpace=wrap;html=1;labelBackgroundColor=none;fillColor=#cce5ff;strokeColor=#36393d;fontColor=#000000;" parent="1" vertex="1">
          <mxGeometry x="34" y="189" width="170" height="40" as="geometry" />
        </mxCell>
        <mxCell id="y_GRqJ1ZzVfy5zHWJSPP-37" value="" style="edgeStyle=elbowEdgeStyle;elbow=horizontal;html=1;rounded=1;curved=0;sourcePerimeterSpacing=0;targetPerimeterSpacing=0;startSize=6;endSize=6;entryX=0;entryY=0.085;entryDx=0;entryDy=0;labelBackgroundColor=none;fontColor=#000000;fillColor=#cce5ff;strokeColor=#36393d;entryPerimeter=0;" parent="1" source="y_GRqJ1ZzVfy5zHWJSPP-36" target="y_GRqJ1ZzVfy5zHWJSPP-30" edge="1">
          <mxGeometry relative="1" as="geometry">
            <mxPoint x="245" y="249" as="targetPoint" />
            <Array as="points">
              <mxPoint x="260" y="250" />
            </Array>
          </mxGeometry>
        </mxCell>
        <mxCell id="y_GRqJ1ZzVfy5zHWJSPP-38" value="Organisk belastning" style="whiteSpace=wrap;html=1;labelBackgroundColor=none;fillColor=#cce5ff;strokeColor=#36393d;fontColor=#000000;" parent="1" vertex="1">
          <mxGeometry x="285" y="99" width="80" height="40" as="geometry" />
        </mxCell>
        <mxCell id="y_GRqJ1ZzVfy5zHWJSPP-39" value="" style="edgeStyle=elbowEdgeStyle;elbow=horizontal;html=1;rounded=1;curved=0;sourcePerimeterSpacing=0;targetPerimeterSpacing=0;startSize=6;endSize=6;entryX=0;entryY=0.5;entryDx=0;entryDy=0;labelBackgroundColor=none;fontColor=#000000;fillColor=#cce5ff;strokeColor=#36393d;" parent="1" source="y_GRqJ1ZzVfy5zHWJSPP-38" target="y_GRqJ1ZzVfy5zHWJSPP-23" edge="1">
          <mxGeometry relative="1" as="geometry">
            <mxPoint x="435" y="59" as="targetPoint" />
          </mxGeometry>
        </mxCell>
        <mxCell id="y_GRqJ1ZzVfy5zHWJSPP-40" value="O2 Oksygen" style="whiteSpace=wrap;html=1;labelBackgroundColor=none;fillColor=#cce5ff;strokeColor=#36393d;fontColor=#000000;" parent="1" vertex="1">
          <mxGeometry x="34" y="99" width="170" height="40" as="geometry" />
        </mxCell>
        <mxCell id="y_GRqJ1ZzVfy5zHWJSPP-41" value="" style="edgeStyle=elbowEdgeStyle;elbow=horizontal;html=1;rounded=1;curved=0;sourcePerimeterSpacing=0;targetPerimeterSpacing=0;startSize=6;endSize=6;entryX=0;entryY=0.5;entryDx=0;entryDy=0;labelBackgroundColor=none;fontColor=#000000;fillColor=#cce5ff;strokeColor=#36393d;" parent="1" source="y_GRqJ1ZzVfy5zHWJSPP-40" target="y_GRqJ1ZzVfy5zHWJSPP-38" edge="1">
          <mxGeometry relative="1" as="geometry">
            <mxPoint x="245" y="179" as="targetPoint" />
          </mxGeometry>
        </mxCell>
        <mxCell id="y_GRqJ1ZzVfy5zHWJSPP-42" value="NO3-N sommer" style="whiteSpace=wrap;html=1;labelBackgroundColor=none;fillColor=#cce5ff;strokeColor=#36393d;fontColor=#000000;" parent="1" vertex="1">
          <mxGeometry x="34" y="289" width="170" height="40" as="geometry" />
        </mxCell>
        <mxCell id="y_GRqJ1ZzVfy5zHWJSPP-43" value="" style="edgeStyle=elbowEdgeStyle;elbow=horizontal;html=1;rounded=1;curved=0;sourcePerimeterSpacing=0;targetPerimeterSpacing=0;startSize=6;endSize=6;entryX=-0.004;entryY=0.392;entryDx=0;entryDy=0;labelBackgroundColor=none;fontColor=#000000;fillColor=#cce5ff;strokeColor=#36393d;entryPerimeter=0;" parent="1" source="y_GRqJ1ZzVfy5zHWJSPP-42" target="y_GRqJ1ZzVfy5zHWJSPP-30" edge="1">
          <mxGeometry relative="1" as="geometry">
            <mxPoint x="325" y="309" as="targetPoint" />
          </mxGeometry>
        </mxCell>
        <mxCell id="y_GRqJ1ZzVfy5zHWJSPP-59" value="Middel" style="text;html=1;align=center;verticalAlign=middle;whiteSpace=wrap;rounded=0;fontColor=#000000;fontStyle=3" parent="1" vertex="1">
          <mxGeometry x="260" y="270" width="60" height="30" as="geometry" />
        </mxCell>
        <mxCell id="y_GRqJ1ZzVfy5zHWJSPP-63" value="OOAO = &quot;One out all out&quot; el. &quot;vÃ¦rste styrer&quot;" style="text;html=1;align=center;verticalAlign=middle;whiteSpace=wrap;rounded=0;fontColor=#000000;fontStyle=3" parent="1" vertex="1">
          <mxGeometry x="375" y="579" width="300" height="30" as="geometry" />
        </mxCell>
        <mxCell id="2X02libbnEGjVLq_vz0E-2" value="" style="edgeStyle=elbowEdgeStyle;elbow=horizontal;html=1;rounded=1;curved=0;sourcePerimeterSpacing=0;targetPerimeterSpacing=0;startSize=6;endSize=6;entryX=0;entryY=0.57;entryDx=0;entryDy=0;labelBackgroundColor=none;fontColor=#000000;fillColor=#cce5ff;strokeColor=#36393d;entryPerimeter=0;" edge="1" parent="1" target="y_GRqJ1ZzVfy5zHWJSPP-30">
          <mxGeometry relative="1" as="geometry">
            <mxPoint x="285" y="360" as="targetPoint" />
            <mxPoint x="203.9999999999999" y="360" as="sourcePoint" />
          </mxGeometry>
        </mxCell>
        <mxCell id="2X02libbnEGjVLq_vz0E-5" value="PO4-P sommer" style="whiteSpace=wrap;html=1;labelBackgroundColor=none;fillColor=#cce5ff;strokeColor=#36393d;fontColor=#000000;" vertex="1" parent="1">
          <mxGeometry x="34" y="340" width="170" height="40" as="geometry" />
        </mxCell>
        <mxCell id="2X02libbnEGjVLq_vz0E-7" value="TN sommer" style="whiteSpace=wrap;html=1;labelBackgroundColor=none;fillColor=#cce5ff;strokeColor=#36393d;fontColor=#000000;" vertex="1" parent="1">
          <mxGeometry x="34" y="389" width="170" height="40" as="geometry" />
        </mxCell>
        <mxCell id="2X02libbnEGjVLq_vz0E-8" value="" style="edgeStyle=elbowEdgeStyle;elbow=horizontal;html=1;rounded=1;curved=0;sourcePerimeterSpacing=0;targetPerimeterSpacing=0;startSize=6;endSize=6;entryX=0;entryY=0.75;entryDx=0;entryDy=0;labelBackgroundColor=none;fontColor=#000000;fillColor=#cce5ff;strokeColor=#36393d;" edge="1" parent="1" target="y_GRqJ1ZzVfy5zHWJSPP-30">
          <mxGeometry relative="1" as="geometry">
            <mxPoint x="285" y="400" as="targetPoint" />
            <mxPoint x="204" y="409" as="sourcePoint" />
          </mxGeometry>
        </mxCell>
        <mxCell id="2X02libbnEGjVLq_vz0E-10" value="TP sommer" style="whiteSpace=wrap;html=1;labelBackgroundColor=none;fillColor=#cce5ff;strokeColor=#36393d;fontColor=#000000;" vertex="1" parent="1">
          <mxGeometry x="34" y="440" width="170" height="40" as="geometry" />
        </mxCell>
        <mxCell id="2X02libbnEGjVLq_vz0E-11" value="" style="edgeStyle=elbowEdgeStyle;elbow=horizontal;html=1;rounded=1;curved=0;sourcePerimeterSpacing=0;targetPerimeterSpacing=0;startSize=6;endSize=6;entryX=0;entryY=0.877;entryDx=0;entryDy=0;labelBackgroundColor=none;fontColor=#000000;fillColor=#cce5ff;strokeColor=#36393d;entryPerimeter=0;" edge="1" parent="1" source="2X02libbnEGjVLq_vz0E-10" target="y_GRqJ1ZzVfy5zHWJSPP-30">
          <mxGeometry relative="1" as="geometry">
            <mxPoint x="285" y="451" as="targetPoint" />
          </mxGeometry>
        </mxCell>
      </root>
    </mxGraphModel>
  </diagram>
</mxfile>
